<svg xmlns="http://www.w3.org/2000/svg" viewBox="0 0 2160 1960" width="2160" height="1960" style="background-color: #0F172A; font-family: -apple-system, BlinkMacSystemFont, 'Segoe UI', Roboto, Helvetica, Arial, sans-serif;">
<defs>
  <linearGradient id="bg_gradient" x1="0%" y1="0%" x2="100%" y2="100%">
    <stop offset="0%" stop-color="#F4F6FA" />
    <stop offset="100%" stop-color="#E8EDF5" />
  </linearGradient>
  <linearGradient id="card_shadow" x1="0%" y1="0%" x2="0%" y2="100%">
    <stop offset="0%" stop-color="#000000" stop-opacity="0.04" />
    <stop offset="100%" stop-color="#000000" stop-opacity="0.08" />
  </linearGradient>
  <filter id="shadow" x="-5%" y="-5%" width="110%" height="115%" filterUnits="userSpaceOnUse">
    <feDropShadow dx="0" dy="8" stdDeviation="12" flood-color="#0F172A" flood-opacity="0.12" />
  </filter>
  <filter id="modal_shadow" x="-10%" y="-10%" width="120%" height="125%" filterUnits="userSpaceOnUse">
    <feDropShadow dx="0" dy="16" stdDeviation="24" flood-color="#000000" flood-opacity="0.35" />
  </filter>
  <clipPath id="frame_clip"><rect width="380" height="780" rx="32" /></clipPath>
</defs>

<!-- Canvas Global Header -->
<rect x="0" y="0" width="2160" height="80" fill="#1E293B" />
<text x="50" y="38" fill="#F8FAFC" font-size="20" font-weight="700" letter-spacing="0.5">SMART AUTOMATIC ATTENDANCE SYSTEM — ANDROID UI SPECIFICATION</text>
<text x="50" y="60" fill="#94A3B8" font-size="13">Visual Reference &amp; Handoff Specification for Redesign in Figma AI • High-Fidelity Architectural Reproduction</text>
<rect x="1860" y="24" width="250" height="32" rx="16" fill="#334155" />
<text x="1985" y="45" fill="#38BDF8" font-size="12" font-weight="600" text-anchor="middle">10 Confirmed Android Frames</text>

<g id="label_frame_01_login">
  <text x="50" y="108" fill="#F8FAFC" font-size="16" font-weight="700">1. Login Screen</text>
  <rect x="50" y="116" width="80" height="18" rx="4" fill="#334155" />
  <text x="90" y="129" fill="#94A3B8" font-size="10" font-weight="600" text-anchor="middle">ROLE: ALL ROLES</text>
  <text x="140" y="129" fill="#38BDF8" font-size="11" font-weight="500">State: Default / Entry</text>
</g>
<g id="frame_01_login" transform="translate(50, 140)">
  <!-- Phone Body Outer Frame -->
  <rect x="-4" y="-4" width="388" height="788" rx="36" fill="#1E293B" stroke="#475569" stroke-width="2" filter="url(#shadow)" />
  <g clip-path="url(#frame_clip)">
    <rect width="380" height="780" fill="url(#bg_gradient)" />
    <!-- Android Status Bar -->
    <rect width="380" height="28" fill="#1A2340" fill-opacity="0.03" />
    <text x="28" y="19" fill="#1A2340" font-size="11" font-weight="600">09:41</text>
    <circle cx="320" cy="15" r="3" fill="#1A2340" />
    <circle cx="328" cy="15" r="4" fill="#1A2340" />
    <path d="M344 11 h14 v8 h-14 z" fill="none" stroke="#1A2340" stroke-width="1.5" rx="2" />
    <rect x="346" y="13" width="8" height="4" fill="#1A2340" rx="1" />
    <!-- Top Illustration Icon -->
    <circle cx="190" cy="130" r="44" fill="#E8F5E9" stroke="#C8F0D4" stroke-width="2" />
    <path d="M172 130 l12 12 l24 -24" fill="none" stroke="#1B8B3E" stroke-width="4" stroke-linecap="round" stroke-linejoin="round" />
    <text x="190" y="198" fill="#1A2340" font-size="22" font-weight="800" text-anchor="middle">Smart Attendance</text>
    <text x="190" y="218" fill="#6B7A99" font-size="12" text-anchor="middle">Autonomous Wi-Fi Beacon Verification</text>

    <!-- Glass Card Container (glass_card.xml) -->
    <rect x="20" y="240" width="340" height="450" rx="24" fill="#FFFFFF" stroke="#E2E8F0" stroke-width="1.5" filter="url(#shadow)" />
    <text x="190" y="280" fill="#1A2340" font-size="20" font-weight="700" text-anchor="middle">Welcome Back</text>

    <!-- Email Field -->
    <text x="40" y="318" fill="#6B7A99" font-size="12" font-weight="500">Email Address</text>
    <rect x="40" y="328" width="300" height="48" rx="12" fill="#F8FAFC" stroke="#CBD5E1" stroke-width="1" />
    <text x="56" y="358" fill="#1A2340" font-size="13">student@rit.ac.in</text>

    <!-- Password Field -->
    <text x="40" y="400" fill="#6B7A99" font-size="12" font-weight="500">Password</text>
    <rect x="40" y="410" width="300" height="48" rx="12" fill="#F8FAFC" stroke="#CBD5E1" stroke-width="1" />
    <text x="56" y="440" fill="#1A2340" font-size="16">••••••••••••</text>
    <circle cx="316" cy="434" r="8" fill="none" stroke="#94A3B8" stroke-width="1.5" />
    <circle cx="316" cy="434" r="3" fill="#94A3B8" />

    <!-- Role Radio Group (Horizontal) -->
    <g transform="translate(48, 480)">
      <!-- Student (Checked) -->
      <circle cx="10" cy="10" r="9" fill="#1B8B3E" />
      <circle cx="10" cy="10" r="4" fill="#FFFFFF" />
      <text x="26" y="15" fill="#1A2340" font-size="13" font-weight="600">Student</text>

      <!-- Teacher -->
      <circle cx="115" cy="10" r="9" fill="none" stroke="#94A3B8" stroke-width="2" />
      <text x="131" y="15" fill="#6B7A99" font-size="13">Teacher</text>

      <!-- Admin -->
      <circle cx="215" cy="10" r="9" fill="none" stroke="#94A3B8" stroke-width="2" />
      <text x="231" y="15" fill="#6B7A99" font-size="13">Admin</text>
    </g>

    <!-- Primary Login Button -->
    <rect x="40" y="534" width="300" height="54" rx="12" fill="#1B8B3E" />
    <text x="190" y="567" fill="#FFFFFF" font-size="16" font-weight="700" text-anchor="middle">Login</text>

    <!-- Footer Disclaimer -->
    <text x="190" y="630" fill="#94A3B8" font-size="11" text-anchor="middle">RIT MCA • Production Secure JWT Auth</text>
  </g>
</g>

<g id="label_frame_02_student_idle">
  <text x="470" y="108" fill="#F8FAFC" font-size="16" font-weight="700">2. Student Dashboard</text>
  <rect x="470" y="116" width="80" height="18" rx="4" fill="#334155" />
  <text x="510" y="129" fill="#94A3B8" font-size="10" font-weight="600" text-anchor="middle">ROLE: STUDENT</text>
  <text x="560" y="129" fill="#38BDF8" font-size="11" font-weight="500">State: Idle / No Active Session</text>
</g>
<g id="frame_02_student_idle" transform="translate(470, 140)">
  <!-- Phone Body Outer Frame -->
  <rect x="-4" y="-4" width="388" height="788" rx="36" fill="#1E293B" stroke="#475569" stroke-width="2" filter="url(#shadow)" />
  <g clip-path="url(#frame_clip)">
    <rect width="380" height="780" fill="url(#bg_gradient)" />
    <!-- Android Status Bar -->
    <rect width="380" height="28" fill="#1A2340" fill-opacity="0.03" />
    <text x="28" y="19" fill="#1A2340" font-size="11" font-weight="600">09:41</text>
    <circle cx="320" cy="15" r="3" fill="#1A2340" />
    <circle cx="328" cy="15" r="4" fill="#1A2340" />
    <path d="M344 11 h14 v8 h-14 z" fill="none" stroke="#1A2340" stroke-width="1.5" rx="2" />
    <rect x="346" y="13" width="8" height="4" fill="#1A2340" rx="1" />
    <!-- Header Bar -->
    <text x="24" y="64" fill="#1A2340" font-size="18" font-weight="800">Student Dashboard</text>
    <text x="270" y="62" fill="#1B8B3E" font-size="12" font-weight="700">Refresh</text>
    <text x="326" y="62" fill="#E53935" font-size="12" font-weight="700">Logout</text>

    <!-- Card 1: Student Profile -->
    <rect x="16" y="84" width="348" height="88" rx="20" fill="#FFFFFF" stroke="#E2E8F0" stroke-width="1.2" />
    <text x="32" y="108" fill="#1A2340" font-size="14" font-weight="700">Profile</text>
    <text x="32" y="128" fill="#1A2340" font-size="12">Name: <tspan font-weight="600">Ajay Nath</tspan>  (Reg: 21MCA001)</text>
    <text x="32" y="146" fill="#6B7A99" font-size="11">Email: student@rit.ac.in  •  Device: dev_84a9…b2</text>

    <!-- Two Column Cards: Status & Action -->
    <!-- Card 2: Status -->
    <rect x="16" y="184" width="168" height="96" rx="20" fill="#FFFFFF" stroke="#E2E8F0" stroke-width="1.2" />
    <text x="32" y="208" fill="#1A2340" font-size="13" font-weight="700">Status</text>
    <text x="100" y="244" fill="#6B7A99" font-size="12" text-anchor="middle">No active class</text>
    <text x="100" y="260" fill="#6B7A99" font-size="12" text-anchor="middle">session.</text>

    <!-- Card 3: Mark Present Button -->
    <rect x="196" y="184" width="168" height="96" rx="20" fill="#FFFFFF" stroke="#E2E8F0" stroke-width="1.2" />
    <text x="212" y="208" fill="#1A2340" font-size="13" font-weight="700">Mark Present</text>
    <rect x="210" y="226" width="140" height="40" rx="12" fill="#1B8B3E" fill-opacity="0.4" />
    <text x="280" y="251" fill="#FFFFFF" font-size="12" font-weight="700" text-anchor="middle">Mark Attendance</text>

    <!-- Card 4: My Attendance Stats -->
    <rect x="16" y="292" width="348" height="460" rx="20" fill="#FFFFFF" stroke="#E2E8F0" stroke-width="1.2" />
    <text x="32" y="320" fill="#1A2340" font-size="15" font-weight="700">My Attendance</text>

    <!-- Overall Percentage Badge Circle -->
    <circle cx="76" cy="378" r="38" fill="#E8F5E9" stroke="#C8F0D4" stroke-width="2" />
    <text x="76" y="382" fill="#1B8B3E" font-size="22" font-weight="800" text-anchor="middle">85.2%</text>
    <text x="76" y="398" fill="#1B8B3E" font-size="10" font-weight="600" text-anchor="middle">Overall</text>

    <!-- Summary Numbers Column -->
    <g transform="translate(136, 344)">
      <text x="0" y="16" fill="#6B7A99" font-size="12">Present Classes</text>
      <text x="180" y="16" fill="#1B8B3E" font-size="13" font-weight="700" text-anchor="end">23</text>
      <text x="0" y="38" fill="#6B7A99" font-size="12">Absent Classes</text>
      <text x="180" y="38" fill="#E53935" font-size="13" font-weight="700" text-anchor="end">4</text>
      <text x="0" y="60" fill="#6B7A99" font-size="12">Total Sessions</text>
      <text x="180" y="60" fill="#1A2340" font-size="13" font-weight="700" text-anchor="end">27</text>
    </g>

    <!-- Horizontal Progress Bar -->
    <rect x="32" y="432" width="316" height="10" rx="5" fill="#E2E8F0" />
    <rect x="32" y="432" width="269" height="10" rx="5" fill="#1B8B3E" />

    <!-- Subject Breakdown List -->
    <text x="32" y="470" fill="#1A2340" font-size="13" font-weight="700">Subject Breakdown</text>

    <!-- Subject 1 -->
    <g transform="translate(32, 488)">
      <text x="0" y="14" fill="#1A2340" font-size="12" font-weight="600">Mobile App Development</text>
      <text x="316" y="14" fill="#1B8B3E" font-size="12" font-weight="700" text-anchor="end">90.0% (18/20)</text>
      <rect x="0" y="22" width="316" height="6" rx="3" fill="#E2E8F0" />
      <rect x="0" y="22" width="284" height="6" rx="3" fill="#1B8B3E" />
    </g>

    <!-- Subject 2 -->
    <g transform="translate(32, 532)">
      <text x="0" y="14" fill="#1A2340" font-size="12" font-weight="600">Cloud Computing Architecture</text>
      <text x="316" y="14" fill="#E53935" font-size="12" font-weight="700" text-anchor="end">71.4% (5/7)</text>
      <rect x="0" y="22" width="316" height="6" rx="3" fill="#E2E8F0" />
      <rect x="0" y="22" width="225" height="6" rx="3" fill="#E53935" />
    </g>

    <!-- Subject 3 -->
    <g transform="translate(32, 576)">
      <text x="0" y="14" fill="#1A2340" font-size="12" font-weight="600">Advanced Database Systems</text>
      <text x="316" y="14" fill="#1B8B3E" font-size="12" font-weight="700" text-anchor="end">88.9% (8/9)</text>
      <rect x="0" y="22" width="316" height="6" rx="3" fill="#E2E8F0" />
      <rect x="0" y="22" width="280" height="6" rx="3" fill="#1B8B3E" />
    </g>
  </g>
</g>

<g id="label_frame_03_student_dialog">
  <text x="890" y="108" fill="#F8FAFC" font-size="16" font-weight="700">3. Attendance Code Entry</text>
  <rect x="890" y="116" width="80" height="18" rx="4" fill="#334155" />
  <text x="930" y="129" fill="#94A3B8" font-size="10" font-weight="600" text-anchor="middle">ROLE: STUDENT</text>
  <text x="980" y="129" fill="#38BDF8" font-size="11" font-weight="500">State: Active Session + Code Dialog</text>
</g>
<g id="frame_03_student_dialog" transform="translate(890, 140)">
  <!-- Phone Body Outer Frame -->
  <rect x="-4" y="-4" width="388" height="788" rx="36" fill="#1E293B" stroke="#475569" stroke-width="2" filter="url(#shadow)" />
  <g clip-path="url(#frame_clip)">
    <rect width="380" height="780" fill="url(#bg_gradient)" />
    <!-- Android Status Bar -->
    <rect width="380" height="28" fill="#1A2340" fill-opacity="0.03" />
    <text x="28" y="19" fill="#1A2340" font-size="11" font-weight="600">09:41</text>
    <circle cx="320" cy="15" r="3" fill="#1A2340" />
    <circle cx="328" cy="15" r="4" fill="#1A2340" />
    <path d="M344 11 h14 v8 h-14 z" fill="none" stroke="#1A2340" stroke-width="1.5" rx="2" />
    <rect x="346" y="13" width="8" height="4" fill="#1A2340" rx="1" />
    <!-- Underneath Background (Active Session visible) -->
    <text x="24" y="64" fill="#1A2340" font-size="18" font-weight="800">Student Dashboard</text>
    <rect x="16" y="84" width="348" height="88" rx="20" fill="#FFFFFF" />
    <rect x="16" y="184" width="168" height="96" rx="20" fill="#FFFFFF" />
    <rect x="196" y="184" width="168" height="96" rx="20" fill="#FFFFFF" />
    <text x="100" y="244" fill="#1B8B3E" font-size="12" font-weight="700" text-anchor="middle">SESSION ACTIVE</text>

    <!-- Dimmed Modal Backdrop -->
    <rect width="380" height="780" fill="#0F172A" fill-opacity="0.65" />

    <!-- AlertDialog Modal Card -->
    <rect x="24" y="230" width="332" height="320" rx="24" fill="#FFFFFF" filter="url(#modal_shadow)" />
    <text x="44" y="272" fill="#1A2340" font-size="18" font-weight="800">Enter Attendance Code</text>
    <text x="44" y="296" fill="#475569" font-size="12">Ask your teacher for the code currently shown on their</text>
    <text x="44" y="312" fill="#475569" font-size="12">screen. It changes every 15 seconds.</text>

    <!-- Code Input Box -->
    <rect x="44" y="340" width="292" height="58" rx="14" fill="#F8FAFC" stroke="#1B8B3E" stroke-width="2" />
    <text x="190" y="378" fill="#1A2340" font-size="26" font-weight="800" letter-spacing="10" text-anchor="middle">8 4 9 2</text>
    <text x="190" y="416" fill="#16A34A" font-size="11" font-weight="600" text-anchor="middle">⏱ 15s rotating dynamic code</text>

    <!-- Dialog Actions -->
    <text x="180" y="504" fill="#64748B" font-size="13" font-weight="700" text-anchor="end">CANCEL</text>
    <rect x="200" y="476" width="136" height="44" rx="10" fill="#1B8B3E" />
    <text x="268" y="503" fill="#FFFFFF" font-size="12" font-weight="700" text-anchor="middle">SUBMIT &amp; SCAN</text>
  </g>
</g>

<g id="label_frame_04_student_present">
  <text x="1310" y="108" fill="#F8FAFC" font-size="16" font-weight="700">4. Attendance Confirmed</text>
  <rect x="1310" y="116" width="80" height="18" rx="4" fill="#334155" />
  <text x="1350" y="129" fill="#94A3B8" font-size="10" font-weight="600" text-anchor="middle">ROLE: STUDENT</text>
  <text x="1400" y="129" fill="#38BDF8" font-size="11" font-weight="500">State: Marked Present State</text>
</g>
<g id="frame_04_student_present" transform="translate(1310, 140)">
  <!-- Phone Body Outer Frame -->
  <rect x="-4" y="-4" width="388" height="788" rx="36" fill="#1E293B" stroke="#475569" stroke-width="2" filter="url(#shadow)" />
  <g clip-path="url(#frame_clip)">
    <rect width="380" height="780" fill="url(#bg_gradient)" />
    <!-- Android Status Bar -->
    <rect width="380" height="28" fill="#1A2340" fill-opacity="0.03" />
    <text x="28" y="19" fill="#1A2340" font-size="11" font-weight="600">09:41</text>
    <circle cx="320" cy="15" r="3" fill="#1A2340" />
    <circle cx="328" cy="15" r="4" fill="#1A2340" />
    <path d="M344 11 h14 v8 h-14 z" fill="none" stroke="#1A2340" stroke-width="1.5" rx="2" />
    <rect x="346" y="13" width="8" height="4" fill="#1A2340" rx="1" />
    <!-- Header Bar -->
    <text x="24" y="64" fill="#1A2340" font-size="18" font-weight="800">Student Dashboard</text>
    <text x="270" y="62" fill="#1B8B3E" font-size="12" font-weight="700">Refresh</text>
    <text x="326" y="62" fill="#E53935" font-size="12" font-weight="700">Logout</text>

    <!-- Profile Card -->
    <rect x="16" y="84" width="348" height="88" rx="20" fill="#FFFFFF" stroke="#E2E8F0" stroke-width="1.2" />
    <text x="32" y="108" fill="#1A2340" font-size="14" font-weight="700">Profile</text>
    <text x="32" y="128" fill="#1A2340" font-size="12">Name: <tspan font-weight="600">Ajay Nath</tspan>  (Reg: 21MCA001)</text>
    <text x="32" y="146" fill="#6B7A99" font-size="11">Email: student@rit.ac.in  •  Device: dev_84a9…b2</text>

    <!-- Card 2: Status (PRESENT Confirmed) -->
    <rect x="16" y="184" width="168" height="96" rx="20" fill="#F0FDF4" stroke="#86EFAC" stroke-width="1.5" />
    <text x="32" y="208" fill="#166534" font-size="13" font-weight="700">Status</text>
    <text x="100" y="244" fill="#1B8B3E" font-size="18" font-weight="800" text-anchor="middle">Present ✓</text>
    <text x="100" y="262" fill="#15803D" font-size="10" font-weight="600" text-anchor="middle">Beacon Verified</text>

    <!-- Card 3: Mark Present (Disabled State) -->
    <rect x="196" y="184" width="168" height="96" rx="20" fill="#FFFFFF" stroke="#E2E8F0" stroke-width="1.2" />
    <text x="212" y="208" fill="#1A2340" font-size="13" font-weight="700">Mark Present</text>
    <rect x="210" y="226" width="140" height="40" rx="12" fill="#94A3B8" />
    <text x="280" y="251" fill="#FFFFFF" font-size="12" font-weight="700" text-anchor="middle">Already Marked</text>

    <!-- Card 4: Stats Incremented -->
    <rect x="16" y="292" width="348" height="430" rx="20" fill="#FFFFFF" stroke="#E2E8F0" stroke-width="1.2" />
    <text x="32" y="320" fill="#1A2340" font-size="15" font-weight="700">My Attendance</text>
    <circle cx="76" cy="378" r="38" fill="#E8F5E9" stroke="#C8F0D4" stroke-width="2" />
    <text x="76" y="382" fill="#1B8B3E" font-size="22" font-weight="800" text-anchor="middle">85.7%</text>
    <text x="76" y="398" fill="#1B8B3E" font-size="10" font-weight="600" text-anchor="middle">Overall</text>

    <g transform="translate(136, 344)">
      <text x="0" y="16" fill="#6B7A99" font-size="12">Present Classes</text>
      <text x="180" y="16" fill="#1B8B3E" font-size="13" font-weight="700" text-anchor="end">24 (+1)</text>
      <text x="0" y="38" fill="#6B7A99" font-size="12">Absent Classes</text>
      <text x="180" y="38" fill="#E53935" font-size="13" font-weight="700" text-anchor="end">4</text>
      <text x="0" y="60" fill="#6B7A99" font-size="12">Total Sessions</text>
      <text x="180" y="60" fill="#1A2340" font-size="13" font-weight="700" text-anchor="end">28</text>
    </g>
    <rect x="32" y="432" width="316" height="10" rx="5" fill="#E2E8F0" />
    <rect x="32" y="432" width="271" height="10" rx="5" fill="#1B8B3E" />

    <!-- Toast Notification Banner at Bottom -->
    <rect x="32" y="718" width="316" height="42" rx="21" fill="#1A2340" filter="url(#modal_shadow)" />
    <text x="190" y="744" fill="#FFFFFF" font-size="12" font-weight="600" text-anchor="middle">✓ Attendance recorded successfully!</text>
  </g>
</g>

<g id="label_frame_05_teacher_idle">
  <text x="1730" y="108" fill="#F8FAFC" font-size="16" font-weight="700">5. Teacher Dashboard</text>
  <rect x="1730" y="116" width="80" height="18" rx="4" fill="#334155" />
  <text x="1770" y="129" fill="#94A3B8" font-size="10" font-weight="600" text-anchor="middle">ROLE: TEACHER</text>
  <text x="1820" y="129" fill="#38BDF8" font-size="11" font-weight="500">State: Idle / Session Setup</text>
</g>
<g id="frame_05_teacher_idle" transform="translate(1730, 140)">
  <!-- Phone Body Outer Frame -->
  <rect x="-4" y="-4" width="388" height="788" rx="36" fill="#1E293B" stroke="#475569" stroke-width="2" filter="url(#shadow)" />
  <g clip-path="url(#frame_clip)">
    <rect width="380" height="780" fill="url(#bg_gradient)" />
    <!-- Android Status Bar -->
    <rect width="380" height="28" fill="#1A2340" fill-opacity="0.03" />
    <text x="28" y="19" fill="#1A2340" font-size="11" font-weight="600">09:41</text>
    <circle cx="320" cy="15" r="3" fill="#1A2340" />
    <circle cx="328" cy="15" r="4" fill="#1A2340" />
    <path d="M344 11 h14 v8 h-14 z" fill="none" stroke="#1A2340" stroke-width="1.5" rx="2" />
    <rect x="346" y="13" width="8" height="4" fill="#1A2340" rx="1" />
    <!-- Header Bar -->
    <text x="24" y="64" fill="#1A2340" font-size="18" font-weight="800">Teacher Dashboard</text>
    <text x="270" y="62" fill="#1B8B3E" font-size="12" font-weight="700">Refresh</text>
    <text x="326" y="62" fill="#E53935" font-size="12" font-weight="700">Logout</text>

    <!-- Card 1: Faculty Profile -->
    <rect x="16" y="84" width="348" height="78" rx="20" fill="#FFFFFF" stroke="#E2E8F0" stroke-width="1.2" />
    <text x="32" y="106" fill="#1A2340" font-size="14" font-weight="700">Faculty Profile</text>
    <text x="32" y="126" fill="#1A2340" font-size="12">Name: Dr. Sarah Thomas  •  Faculty ID: 12</text>
    <text x="32" y="142" fill="#6B7A99" font-size="11">Email: teacher@rit.ac.in</text>

    <!-- Card 2: Session Configuration -->
    <rect x="16" y="174" width="348" height="236" rx="20" fill="#FFFFFF" stroke="#E2E8F0" stroke-width="1.2" />
    <text x="32" y="198" fill="#1A2340" font-size="14" font-weight="700">Session Configuration</text>

    <text x="32" y="222" fill="#1A2340" font-size="12" font-weight="600">Select Classroom / Class Name:</text>
    <rect x="32" y="230" width="316" height="42" rx="10" fill="#F8FAFC" stroke="#CBD5E1" stroke-width="1" />
    <text x="46" y="256" fill="#1A2340" font-size="12">MCA Lab 101 (esp8266-mca101)</text>
    <polygon points="330,250 338,250 334,256" fill="#64748B" />

    <text x="32" y="292" fill="#1A2340" font-size="12" font-weight="600">Select Subject:</text>
    <rect x="32" y="300" width="316" height="42" rx="10" fill="#F8FAFC" stroke="#CBD5E1" stroke-width="1" />
    <text x="46" y="326" fill="#1A2340" font-size="12">Mobile Application Dev (MCA401)</text>
    <polygon points="330,320 338,320 334,326" fill="#64748B" />

    <!-- Start Button -->
    <rect x="32" y="356" width="316" height="46" rx="12" fill="#1B8B3E" />
    <text x="190" y="385" fill="#FFFFFF" font-size="14" font-weight="700" text-anchor="middle">Start Attendance Session</text>

    <!-- Card 3: Active Status (Idle) -->
    <rect x="16" y="422" width="348" height="88" rx="20" fill="#FFFFFF" stroke="#E2E8F0" stroke-width="1.2" />
    <text x="32" y="446" fill="#1A2340" font-size="13" font-weight="700">Active Session Status</text>
    <text x="190" y="482" fill="#6B7A99" font-size="13" text-anchor="middle">No active session</text>

    <!-- Card 4: Live Roster (Empty) -->
    <rect x="16" y="522" width="348" height="96" rx="20" fill="#FFFFFF" stroke="#E2E8F0" stroke-width="1.2" />
    <text x="32" y="546" fill="#1A2340" font-size="13" font-weight="700">Live Present Students</text>
    <text x="330" y="546" fill="#1B8B3E" font-size="12" font-weight="700" text-anchor="end">Count: 0</text>
    <text x="32" y="582" fill="#6B7A99" font-size="11">No active session to display live roster.</text>

    <!-- Card 5: History Placeholder -->
    <rect x="16" y="630" width="348" height="120" rx="20" fill="#FFFFFF" stroke="#E2E8F0" stroke-width="1.2" />
    <text x="32" y="654" fill="#1A2340" font-size="13" font-weight="700">Subject Attendance History</text>
    <text x="32" y="684" fill="#6B7A99" font-size="11">Select a subject to view past attendance records.</text>
  </g>
</g>

<g id="label_frame_06_beacon_dialog">
  <text x="50" y="1008" fill="#F8FAFC" font-size="16" font-weight="700">6. Beacon Options Picker</text>
  <rect x="50" y="1016" width="80" height="18" rx="4" fill="#334155" />
  <text x="90" y="1029" fill="#94A3B8" font-size="10" font-weight="600" text-anchor="middle">ROLE: TEACHER</text>
  <text x="140" y="1029" fill="#38BDF8" font-size="11" font-weight="500">State: Beacon Source Selection Dialog</text>
</g>
<g id="frame_06_beacon_dialog" transform="translate(50, 1040)">
  <!-- Phone Body Outer Frame -->
  <rect x="-4" y="-4" width="388" height="788" rx="36" fill="#1E293B" stroke="#475569" stroke-width="2" filter="url(#shadow)" />
  <g clip-path="url(#frame_clip)">
    <rect width="380" height="780" fill="url(#bg_gradient)" />
    <!-- Android Status Bar -->
    <rect width="380" height="28" fill="#1A2340" fill-opacity="0.03" />
    <text x="28" y="19" fill="#1A2340" font-size="11" font-weight="600">09:41</text>
    <circle cx="320" cy="15" r="3" fill="#1A2340" />
    <circle cx="328" cy="15" r="4" fill="#1A2340" />
    <path d="M344 11 h14 v8 h-14 z" fill="none" stroke="#1A2340" stroke-width="1.5" rx="2" />
    <rect x="346" y="13" width="8" height="4" fill="#1A2340" rx="1" />
    <!-- Background: Teacher Dashboard Dimmed -->
    <text x="24" y="64" fill="#1A2340" font-size="18" font-weight="800">Teacher Dashboard</text>
    <rect x="16" y="84" width="348" height="78" rx="20" fill="#FFFFFF" />
    <rect x="16" y="174" width="348" height="236" rx="20" fill="#FFFFFF" />
    <rect width="380" height="780" fill="#0F172A" fill-opacity="0.65" />

    <!-- Modal Dialog: Beacon Options -->
    <rect x="24" y="230" width="332" height="320" rx="24" fill="#FFFFFF" filter="url(#modal_shadow)" />
    <text x="44" y="272" fill="#1A2340" font-size="18" font-weight="800">Attendance Beacon Source</text>
    <text x="44" y="294" fill="#6B7A99" font-size="12">Choose hardware beacon for this session only:</text>

    <!-- Option 1: Classroom Beacon (Default) -->
    <rect x="40" y="314" width="300" height="52" rx="12" fill="#F0FDF4" stroke="#86EFAC" stroke-width="1.5" />
    <circle cx="62" cy="340" r="8" fill="#1B8B3E" />
    <circle cx="62" cy="340" r="3.5" fill="#FFFFFF" />
    <text x="82" y="336" fill="#1A2340" font-size="13" font-weight="700">Classroom Beacon (default)</text>
    <text x="82" y="352" fill="#15803D" font-size="10">Permanent hardware beacon: esp8266-mca101</text>

    <!-- Option 2: Teacher Hotspot -->
    <rect x="40" y="376" width="300" height="52" rx="12" fill="#F8FAFC" stroke="#E2E8F0" stroke-width="1" />
    <circle cx="62" cy="402" r="8" fill="none" stroke="#94A3B8" stroke-width="2" />
    <text x="82" y="398" fill="#1A2340" font-size="13" font-weight="600">Teacher Hotspot</text>
    <text x="82" y="414" fill="#6B7A99" font-size="10">Type your personal phone hotspot SSID</text>

    <!-- Option 3: Nearby Wi-Fi -->
    <rect x="40" y="438" width="300" height="52" rx="12" fill="#F8FAFC" stroke="#E2E8F0" stroke-width="1" />
    <circle cx="62" cy="464" r="8" fill="none" stroke="#94A3B8" stroke-width="2" />
    <text x="82" y="460" fill="#1A2340" font-size="13" font-weight="600">Nearby Wi-Fi</text>
    <text x="82" y="476" fill="#6B7A99" font-size="10">Scan and pick from visible wireless networks</text>

    <!-- Cancel Button -->
    <text x="320" y="524" fill="#64748B" font-size="13" font-weight="700" text-anchor="end">CANCEL</text>
  </g>
</g>

<g id="label_frame_07_teacher_active">
  <text x="470" y="1008" fill="#F8FAFC" font-size="16" font-weight="700">7. Live Active Session</text>
  <rect x="470" y="1016" width="80" height="18" rx="4" fill="#334155" />
  <text x="510" y="1029" fill="#94A3B8" font-size="10" font-weight="600" text-anchor="middle">ROLE: TEACHER</text>
  <text x="560" y="1029" fill="#38BDF8" font-size="11" font-weight="500">State: Rotating Code &amp; Proxy Warning Roster</text>
</g>
<g id="frame_07_teacher_active" transform="translate(470, 1040)">
  <!-- Phone Body Outer Frame -->
  <rect x="-4" y="-4" width="388" height="788" rx="36" fill="#1E293B" stroke="#475569" stroke-width="2" filter="url(#shadow)" />
  <g clip-path="url(#frame_clip)">
    <rect width="380" height="780" fill="url(#bg_gradient)" />
    <!-- Android Status Bar -->
    <rect width="380" height="28" fill="#1A2340" fill-opacity="0.03" />
    <text x="28" y="19" fill="#1A2340" font-size="11" font-weight="600">09:41</text>
    <circle cx="320" cy="15" r="3" fill="#1A2340" />
    <circle cx="328" cy="15" r="4" fill="#1A2340" />
    <path d="M344 11 h14 v8 h-14 z" fill="none" stroke="#1A2340" stroke-width="1.5" rx="2" />
    <rect x="346" y="13" width="8" height="4" fill="#1A2340" rx="1" />
    <!-- Top Header -->
    <text x="24" y="64" fill="#1A2340" font-size="18" font-weight="800">Teacher Dashboard</text>
    <text x="270" y="62" fill="#1B8B3E" font-size="12" font-weight="700">Refresh</text>
    <text x="326" y="62" fill="#E53935" font-size="12" font-weight="700">Logout</text>

    <!-- Card 1: Active Session Timer & Live Code Box -->
    <rect x="16" y="84" width="348" height="188" rx="20" fill="#FFFFFF" stroke="#86EFAC" stroke-width="1.8" />
    <rect x="32" y="100" width="116" height="22" rx="6" fill="#DCFCE7" />
    <text x="90" y="115" fill="#15803D" font-size="10" font-weight="800" text-anchor="middle">● SESSION ACTIVE</text>
    <text x="32" y="142" fill="#1A2340" font-size="14" font-weight="700">Mobile App Development (MCA401)</text>
    <text x="32" y="160" fill="#1A2340" font-size="18" font-weight="800">Time Left: <tspan fill="#1B8B3E">04:32</tspan></text>

    <!-- Rotating Code Highlight Box -->
    <rect x="32" y="172" width="316" height="42" rx="10" fill="#F0FDF4" stroke="#16A34A" stroke-width="1.2" />
    <text x="46" y="198" fill="#166534" font-size="13" font-weight="800">ATTENDANCE CODE: 8492</text>
    <text x="334" y="198" fill="#15803D" font-size="11" font-weight="600" text-anchor="end">(next in 11s)</text>

    <!-- Stop Button -->
    <rect x="32" y="222" width="316" height="38" rx="10" fill="#FEE2E2" stroke="#F87171" stroke-width="1" />
    <text x="190" y="246" fill="#DC2626" font-size="12" font-weight="700" text-anchor="middle">Stop / Cancel Session</text>

    <!-- Card 2: Live Present Students with Proxy Alert -->
    <rect x="16" y="284" width="348" height="470" rx="20" fill="#FFFFFF" stroke="#E2E8F0" stroke-width="1.2" />
    <text x="32" y="312" fill="#1A2340" font-size="14" font-weight="700">Live Present Students</text>
    <text x="330" y="312" fill="#1B8B3E" font-size="12" font-weight="700" text-anchor="end">Count: 2 / 24</text>

    <!-- PROXY ATTEMPT WARNING BANNER -->
    <rect x="28" y="328" width="324" height="64" rx="12" fill="#FFFBEB" stroke="#FDE68A" stroke-width="1.5" />
    <text x="40" y="348" fill="#B45309" font-size="11" font-weight="800">⚠️ PROXY ATTEMPT (Same Phone / Multiple Accounts):</text>
    <text x="40" y="366" fill="#92400E" font-size="10">🚫 Rahul K. (21MCA012) tried to mark using device</text>
    <text x="40" y="380" fill="#92400E" font-size="10">of Ajay Nath (21MCA001) at 10:18 AM</text>

    <!-- Student Attendance List -->
    <g transform="translate(32, 410)">
      <!-- Row 1: Present -->
      <text x="0" y="14" fill="#16A34A" font-size="11" font-weight="800">PRESENT</text>
      <text x="64" y="14" fill="#1A2340" font-size="12" font-weight="600">Ajay Nath (21MCA001)</text>
      <text x="316" y="14" fill="#6B7A99" font-size="11" text-anchor="end">[Auto] 10:16 AM</text>
      <line x1="0" y1="26" x2="316" y2="26" stroke="#F1F5F9" />

      <!-- Row 2: Present -->
      <text x="0" y="46" fill="#16A34A" font-size="11" font-weight="800">PRESENT</text>
      <text x="64" y="46" fill="#1A2340" font-size="12" font-weight="600">Priya S. (21MCA002)</text>
      <text x="316" y="46" fill="#6B7A99" font-size="11" text-anchor="end">[Auto] 10:17 AM</text>
      <line x1="0" y1="58" x2="316" y2="58" stroke="#F1F5F9" />

      <!-- Row 3: Absent -->
      <text x="0" y="78" fill="#94A3B8" font-size="11" font-weight="700">absent</text>
      <text x="64" y="78" fill="#64748B" font-size="12">Kiran V. (21MCA003)</text>
      <line x1="0" y1="90" x2="316" y2="90" stroke="#F1F5F9" />

      <!-- Row 4: Absent -->
      <text x="0" y="110" fill="#94A3B8" font-size="11" font-weight="700">absent</text>
      <text x="64" y="110" fill="#64748B" font-size="12">Sneha M. (21MCA004)</text>
      <line x1="0" y1="122" x2="316" y2="122" stroke="#F1F5F9" />
    </g>

    <!-- Manual Override Tap Prompt -->
    <text x="190" y="580" fill="#2563EB" font-size="11" font-weight="600" text-anchor="middle">👉 Tap this list to manually mark an absent student present</text>
  </g>
</g>

<g id="label_frame_08_manual_dialog">
  <text x="890" y="1008" fill="#F8FAFC" font-size="16" font-weight="700">8. Manual Override Dialog</text>
  <rect x="890" y="1016" width="80" height="18" rx="4" fill="#334155" />
  <text x="930" y="1029" fill="#94A3B8" font-size="10" font-weight="600" text-anchor="middle">ROLE: TEACHER</text>
  <text x="980" y="1029" fill="#38BDF8" font-size="11" font-weight="500">State: Mark Present Manual Override Dialog</text>
</g>
<g id="frame_08_manual_dialog" transform="translate(890, 1040)">
  <!-- Phone Body Outer Frame -->
  <rect x="-4" y="-4" width="388" height="788" rx="36" fill="#1E293B" stroke="#475569" stroke-width="2" filter="url(#shadow)" />
  <g clip-path="url(#frame_clip)">
    <rect width="380" height="780" fill="url(#bg_gradient)" />
    <!-- Android Status Bar -->
    <rect width="380" height="28" fill="#1A2340" fill-opacity="0.03" />
    <text x="28" y="19" fill="#1A2340" font-size="11" font-weight="600">09:41</text>
    <circle cx="320" cy="15" r="3" fill="#1A2340" />
    <circle cx="328" cy="15" r="4" fill="#1A2340" />
    <path d="M344 11 h14 v8 h-14 z" fill="none" stroke="#1A2340" stroke-width="1.5" rx="2" />
    <rect x="346" y="13" width="8" height="4" fill="#1A2340" rx="1" />
    <!-- Background: Teacher Live Roster Dimmed -->
    <text x="24" y="64" fill="#1A2340" font-size="18" font-weight="800">Teacher Dashboard</text>
    <rect x="16" y="84" width="348" height="188" rx="20" fill="#FFFFFF" />
    <rect x="16" y="284" width="348" height="470" rx="20" fill="#FFFFFF" />
    <rect width="380" height="780" fill="#0F172A" fill-opacity="0.65" />

    <!-- Modal Dialog: Manual Attendance -->
    <rect x="24" y="210" width="332" height="360" rx="24" fill="#FFFFFF" filter="url(#modal_shadow)" />
    <text x="44" y="252" fill="#1A2340" font-size="18" font-weight="800">Mark Present (Manual)</text>
    <text x="44" y="274" fill="#6B7A99" font-size="12">Select an absent student from active classroom:</text>

    <!-- Student Item 1 -->
    <rect x="40" y="294" width="300" height="46" rx="10" fill="#F8FAFC" stroke="#E2E8F0" />
    <text x="56" y="322" fill="#1A2340" font-size="13" font-weight="600">Kiran V. (21MCA003)</text>
    <text x="320" y="322" fill="#2563EB" font-size="11" font-weight="700" text-anchor="end">Mark</text>

    <!-- Student Item 2 -->
    <rect x="40" y="348" width="300" height="46" rx="10" fill="#F8FAFC" stroke="#E2E8F0" />
    <text x="56" y="376" fill="#1A2340" font-size="13" font-weight="600">Sneha M. (21MCA004)</text>
    <text x="320" y="376" fill="#2563EB" font-size="11" font-weight="700" text-anchor="end">Mark</text>

    <!-- Student Item 3 -->
    <rect x="40" y="402" width="300" height="46" rx="10" fill="#F8FAFC" stroke="#E2E8F0" />
    <text x="56" y="430" fill="#1A2340" font-size="13" font-weight="600">Arjun P. (21MCA005)</text>
    <text x="320" y="430" fill="#2563EB" font-size="11" font-weight="700" text-anchor="end">Mark</text>

    <!-- Student Item 4 -->
    <rect x="40" y="456" width="300" height="46" rx="10" fill="#F8FAFC" stroke="#E2E8F0" />
    <text x="56" y="484" fill="#1A2340" font-size="13" font-weight="600">Ananya R. (21MCA006)</text>
    <text x="320" y="484" fill="#2563EB" font-size="11" font-weight="700" text-anchor="end">Mark</text>

    <!-- Cancel Button -->
    <text x="320" y="542" fill="#64748B" font-size="13" font-weight="700" text-anchor="end">CANCEL</text>
  </g>
</g>

<g id="label_frame_09_admin_overview">
  <text x="1310" y="1008" fill="#F8FAFC" font-size="16" font-weight="700">9. Admin Dashboard</text>
  <rect x="1310" y="1016" width="80" height="18" rx="4" fill="#334155" />
  <text x="1350" y="1029" fill="#94A3B8" font-size="10" font-weight="600" text-anchor="middle">ROLE: ADMIN</text>
  <text x="1400" y="1029" fill="#38BDF8" font-size="11" font-weight="500">State: Management Control Overview</text>
</g>
<g id="frame_09_admin_overview" transform="translate(1310, 1040)">
  <!-- Phone Body Outer Frame -->
  <rect x="-4" y="-4" width="388" height="788" rx="36" fill="#1E293B" stroke="#475569" stroke-width="2" filter="url(#shadow)" />
  <g clip-path="url(#frame_clip)">
    <rect width="380" height="780" fill="url(#bg_gradient)" />
    <!-- Android Status Bar -->
    <rect width="380" height="28" fill="#1A2340" fill-opacity="0.03" />
    <text x="28" y="19" fill="#1A2340" font-size="11" font-weight="600">09:41</text>
    <circle cx="320" cy="15" r="3" fill="#1A2340" />
    <circle cx="328" cy="15" r="4" fill="#1A2340" />
    <path d="M344 11 h14 v8 h-14 z" fill="none" stroke="#1A2340" stroke-width="1.5" rx="2" />
    <rect x="346" y="13" width="8" height="4" fill="#1A2340" rx="1" />
    <!-- Header Bar -->
    <text x="24" y="64" fill="#1A2340" font-size="18" font-weight="800">Admin Dashboard</text>
    <text x="270" y="62" fill="#1B8B3E" font-size="12" font-weight="700">Refresh</text>
    <text x="326" y="62" fill="#E53935" font-size="12" font-weight="700">Logout</text>

    <!-- Card 1: Students -->
    <rect x="16" y="80" width="348" height="84" rx="18" fill="#FFFFFF" stroke="#E2E8F0" />
    <text x="32" y="106" fill="#1A2340" font-size="14" font-weight="700">🎓 Students</text>
    <rect x="236" y="90" width="50" height="24" rx="6" fill="#F1F5F9" />
    <text x="261" y="106" fill="#1A2340" font-size="11" font-weight="600" text-anchor="middle">+ Add</text>
    <rect x="292" y="90" width="56" height="24" rx="6" fill="#F1F5F9" />
    <text x="320" y="106" fill="#1A2340" font-size="11" font-weight="600" text-anchor="middle">Edit</text>
    <text x="32" y="132" fill="#6B7A99" font-size="11">Total: 48 students enrolled  •  MCA 2024–26</text>
    <text x="32" y="148" fill="#94A3B8" font-size="10">(Long-press card to multi-select delete)</text>

    <!-- Card 2: Teachers -->
    <rect x="16" y="174" width="348" height="78" rx="18" fill="#FFFFFF" stroke="#E2E8F0" />
    <text x="32" y="200" fill="#1A2340" font-size="14" font-weight="700">👨‍🏫 Teachers</text>
    <rect x="236" y="184" width="50" height="24" rx="6" fill="#F1F5F9" />
    <text x="261" y="200" fill="#1A2340" font-size="11" font-weight="600" text-anchor="middle">+ Add</text>
    <rect x="292" y="184" width="56" height="24" rx="6" fill="#F1F5F9" />
    <text x="320" y="200" fill="#1A2340" font-size="11" font-weight="600" text-anchor="middle">Edit</text>
    <text x="32" y="228" fill="#6B7A99" font-size="11">Total: 12 faculty members registered</text>

    <!-- Card 3: Subjects -->
    <rect x="16" y="262" width="348" height="78" rx="18" fill="#FFFFFF" stroke="#E2E8F0" />
    <text x="32" y="288" fill="#1A2340" font-size="14" font-weight="700">📚 Subjects</text>
    <rect x="236" y="272" width="50" height="24" rx="6" fill="#F1F5F9" />
    <text x="261" y="288" fill="#1A2340" font-size="11" font-weight="600" text-anchor="middle">+ Add</text>
    <rect x="292" y="272" width="56" height="24" rx="6" fill="#F1F5F9" />
    <text x="320" y="288" fill="#1A2340" font-size="11" font-weight="600" text-anchor="middle">Edit</text>
    <text x="32" y="316" fill="#6B7A99" font-size="11">6 curriculum subjects configured</text>

    <!-- Card 4: Classrooms -->
    <rect x="16" y="350" width="348" height="88" rx="18" fill="#FFFFFF" stroke="#E2E8F0" />
    <text x="32" y="376" fill="#1A2340" font-size="14" font-weight="700">🏫 Classrooms</text>
    <rect x="236" y="360" width="50" height="24" rx="6" fill="#F1F5F9" />
    <text x="261" y="376" fill="#1A2340" font-size="11" font-weight="600" text-anchor="middle">+ Add</text>
    <rect x="292" y="360" width="56" height="24" rx="6" fill="#F1F5F9" />
    <text x="320" y="376" fill="#1A2340" font-size="11" font-weight="600" text-anchor="middle">Edit</text>
    <text x="32" y="404" fill="#6B7A99" font-size="11">MCA Lab 101  •  Beacon: esp8266-mca101</text>
    <text x="32" y="420" fill="#15803D" font-size="10" font-weight="700">Active (RSSI Threshold: -85 dBm)</text>

    <!-- Card 5: Sessions -->
    <rect x="16" y="448" width="348" height="84" rx="18" fill="#FFFFFF" stroke="#E2E8F0" />
    <text x="32" y="474" fill="#1A2340" font-size="14" font-weight="700">🕐 Sessions</text>
    <rect x="286" y="458" width="62" height="24" rx="6" fill="#F1F5F9" />
    <text x="317" y="474" fill="#1A2340" font-size="11" font-weight="600" text-anchor="middle">+ Start</text>
    <text x="32" y="502" fill="#6B7A99" font-size="11">1 active session  •  28 past completed sessions</text>

    <!-- Card 6: Attendance Logs -->
    <rect x="16" y="542" width="348" height="200" rx="18" fill="#FFFFFF" stroke="#E2E8F0" />
    <text x="32" y="568" fill="#1A2340" font-size="14" font-weight="700">📋 Attendance Records</text>
    <text x="32" y="594" fill="#6B7A99" font-size="11">Latest logged student entries:</text>
    <g transform="translate(32, 608)">
      <text x="0" y="14" fill="#16A34A" font-size="11" font-weight="800">PRESENT</text>
      <text x="64" y="14" fill="#1A2340" font-size="11">Ajay Nath (21MCA001)</text>
      <text x="316" y="14" fill="#64748B" font-size="10" text-anchor="end">Auto [esp8266]</text>
      <text x="0" y="34" fill="#16A34A" font-size="11" font-weight="800">PRESENT</text>
      <text x="64" y="34" fill="#1A2340" font-size="11">Priya S. (21MCA002)</text>
      <text x="316" y="34" fill="#64748B" font-size="10" text-anchor="end">Auto [esp8266]</text>
      <text x="0" y="54" fill="#E53935" font-size="11" font-weight="800">ABSENT</text>
      <text x="64" y="54" fill="#64748B" font-size="11">Kiran V. (21MCA003)</text>
      <text x="316" y="54" fill="#94A3B8" font-size="10" text-anchor="end">Classroom 101</text>
    </g>
  </g>
</g>

<g id="label_frame_10_admin_modal">
  <text x="1730" y="1008" fill="#F8FAFC" font-size="16" font-weight="700">10. Admin Entity Modal</text>
  <rect x="1730" y="1016" width="80" height="18" rx="4" fill="#334155" />
  <text x="1770" y="1029" fill="#94A3B8" font-size="10" font-weight="600" text-anchor="middle">ROLE: ADMIN</text>
  <text x="1820" y="1029" fill="#38BDF8" font-size="11" font-weight="500">State: Add / Edit User &amp; Classroom Roster Dialog</text>
</g>
<g id="frame_10_admin_modal" transform="translate(1730, 1040)">
  <!-- Phone Body Outer Frame -->
  <rect x="-4" y="-4" width="388" height="788" rx="36" fill="#1E293B" stroke="#475569" stroke-width="2" filter="url(#shadow)" />
  <g clip-path="url(#frame_clip)">
    <rect width="380" height="780" fill="url(#bg_gradient)" />
    <!-- Android Status Bar -->
    <rect width="380" height="28" fill="#1A2340" fill-opacity="0.03" />
    <text x="28" y="19" fill="#1A2340" font-size="11" font-weight="600">09:41</text>
    <circle cx="320" cy="15" r="3" fill="#1A2340" />
    <circle cx="328" cy="15" r="4" fill="#1A2340" />
    <path d="M344 11 h14 v8 h-14 z" fill="none" stroke="#1A2340" stroke-width="1.5" rx="2" />
    <rect x="346" y="13" width="8" height="4" fill="#1A2340" rx="1" />
    <!-- Background: Admin Dashboard Dimmed -->
    <text x="24" y="64" fill="#1A2340" font-size="18" font-weight="800">Admin Dashboard</text>
    <rect x="16" y="80" width="348" height="84" rx="18" fill="#FFFFFF" />
    <rect x="16" y="174" width="348" height="78" rx="18" fill="#FFFFFF" />
    <rect x="16" y="262" width="348" height="78" rx="18" fill="#FFFFFF" />
    <rect width="380" height="780" fill="#0F172A" fill-opacity="0.65" />

    <!-- Modal Card -->
    <rect x="24" y="130" width="332" height="520" rx="24" fill="#FFFFFF" filter="url(#modal_shadow)" />
    <text x="44" y="172" fill="#1A2340" font-size="18" font-weight="800">Add New Student</text>

    <!-- Form Field 1: Name -->
    <text x="44" y="206" fill="#1A2340" font-size="12" font-weight="600">Full Name</text>
    <rect x="44" y="214" width="292" height="42" rx="10" fill="#F8FAFC" stroke="#CBD5E1" />
    <text x="56" y="240" fill="#1A2340" font-size="12">Rahul Kumar</text>

    <!-- Form Field 2: Email -->
    <text x="44" y="278" fill="#1A2340" font-size="12" font-weight="600">Email Address</text>
    <rect x="44" y="286" width="292" height="42" rx="10" fill="#F8FAFC" stroke="#CBD5E1" />
    <text x="56" y="312" fill="#1A2340" font-size="12">rahul@rit.ac.in</text>

    <!-- Form Field 3: Reg No -->
    <text x="44" y="350" fill="#1A2340" font-size="12" font-weight="600">Register Number</text>
    <rect x="44" y="358" width="292" height="42" rx="10" fill="#F8FAFC" stroke="#CBD5E1" />
    <text x="56" y="384" fill="#1A2340" font-size="12">21MCA012</text>

    <!-- Form Field 4: Password -->
    <text x="44" y="422" fill="#1A2340" font-size="12" font-weight="600">Initial Password</text>
    <rect x="44" y="430" width="292" height="42" rx="10" fill="#F8FAFC" stroke="#CBD5E1" />
    <text x="56" y="456" fill="#1A2340" font-size="12">••••••••••••</text>

    <!-- Classroom Assignment Checkbox -->
    <g transform="translate(44, 492)">
      <rect x="0" y="0" width="18" height="18" rx="4" fill="#1B8B3E" />
      <path d="M4 9 l3.5 3.5 l6.5 -7" fill="none" stroke="#FFFFFF" stroke-width="2" stroke-linecap="round" />
      <text x="26" y="14" fill="#1A2340" font-size="12" font-weight="600">Enroll in MCA Lab 101 roster</text>
    </g>

    <!-- Actions -->
    <text x="180" y="604" fill="#64748B" font-size="13" font-weight="700" text-anchor="end">CANCEL</text>
    <rect x="200" y="576" width="136" height="44" rx="10" fill="#1B8B3E" />
    <text x="268" y="603" fill="#FFFFFF" font-size="13" font-weight="700" text-anchor="middle">SAVE STUDENT</text>
  </g>
</g>

</svg>